<svg xmlns="http://www.w3.org/2000/svg" viewBox="0 0 1280 640" width="1280" height="640" role="img" aria-labelledby="t d">
	<title id="t">ClearAI — 你的研究,长成一个本体</title>
	<desc id="d">ClearAI lockup and title. Right: an abstract ontology — plain circles only — dark for concepts, light for value forms, emerald for the instance, which carries two conflicting assertions drawn in amber. Bottom: the seven stages of the epistemic loop.</desc>
	<defs>
		<radialGradient id="gridGrad" cx="0.5" cy="0.5" r="0.5">
			<stop offset="0%" stop-color="#fff" stop-opacity="1"/>
			<stop offset="45%" stop-color="#fff" stop-opacity="0.7"/>
			<stop offset="100%" stop-color="#fff" stop-opacity="0"/>
		</radialGradient>
		<mask id="gridFade"><rect x="700" y="0" width="580" height="640" fill="url(#gridGrad)"/></mask>
		<marker id="arrow" markerWidth="8" markerHeight="8" refX="6.6" refY="3.4" orient="auto"><path d="M0,0 L6.6,3.4 L0,6.8 Z" fill="#1C1A18"/></marker>
	</defs>

	<rect width="1280" height="640" fill="#FBFAF7"/>
	<g fill="#1C1A18" fill-opacity="0.13" mask="url(#gridFade)"><circle cx="700" cy="0" r="1.2"/><circle cx="700" cy="26" r="1.2"/><circle cx="700" cy="52" r="1.2"/><circle cx="700" cy="78" r="1.2"/><circle cx="700" cy="104" r="1.2"/><circle cx="700" cy="130" r="1.2"/><circle cx="700" cy="156" r="1.2"/><circle cx="700" cy="182" r="1.2"/><circle cx="700" cy="208" r="1.2"/><circle cx="700" cy="234" r="1.2"/><circle cx="700" cy="260" r="1.2"/><circle cx="700" cy="286" r="1.2"/><circle cx="700" cy="312" r="1.2"/><circle cx="700" cy="338" r="1.2"/><circle cx="700" cy="364" r="1.2"/><circle cx="700" cy="390" r="1.2"/><circle cx="700" cy="416" r="1.2"/><circle cx="700" cy="442" r="1.2"/><circle cx="700" cy="468" r="1.2"/><circle cx="700" cy="494" r="1.2"/><circle cx="700" cy="520" r="1.2"/><circle cx="700" cy="546" r="1.2"/><circle cx="700" cy="572" r="1.2"/><circle cx="700" cy="598" r="1.2"/><circle cx="700" cy="624" r="1.2"/><circle cx="726" cy="0" r="1.2"/><circle cx="726" cy="26" r="1.2"/><circle cx="726" cy="52" r="1.2"/><circle cx="726" cy="78" r="1.2"/><circle cx="726" cy="104" r="1.2"/><circle cx="726" cy="130" r="1.2"/><circle cx="726" cy="156" r="1.2"/><circle cx="726" cy="182" r="1.2"/><circle cx="726" cy="208" r="1.2"/><circle cx="726" cy="234" r="1.2"/><circle cx="726" cy="260" r="1.2"/><circle cx="726" cy="286" r="1.2"/><circle cx="726" cy="312" r="1.2"/><circle cx="726" cy="338" r="1.2"/><circle cx="726" cy="364" r="1.2"/><circle cx="726" cy="390" r="1.2"/><circle cx="726" cy="416" r="1.2"/><circle cx="726" cy="442" r="1.2"/><circle cx="726" cy="468" r="1.2"/><circle cx="726" cy="494" r="1.2"/><circle cx="726" cy="520" r="1.2"/><circle cx="726" cy="546" r="1.2"/><circle cx="726" cy="572" r="1.2"/><circle cx="726" cy="598" r="1.2"/><circle cx="726" cy="624" r="1.2"/><circle cx="752" cy="0" r="1.2"/><circle cx="752" cy="26" r="1.2"/><circle cx="752" cy="52" r="1.2"/><circle cx="752" cy="78" r="1.2"/><circle cx="752" cy="104" r="1.2"/><circle cx="752" cy="130" r="1.2"/><circle cx="752" cy="156" r="1.2"/><circle cx="752" cy="182" r="1.2"/><circle cx="752" cy="208" r="1.2"/><circle cx="752" cy="234" r="1.2"/><circle cx="752" cy="260" r="1.2"/><circle cx="752" cy="286" r="1.2"/><circle cx="752" cy="312" r="1.2"/><circle cx="752" cy="338" r="1.2"/><circle cx="752" cy="364" r="1.2"/><circle cx="752" cy="390" r="1.2"/><circle cx="752" cy="416" r="1.2"/><circle cx="752" cy="442" r="1.2"/><circle cx="752" cy="468" r="1.2"/><circle cx="752" cy="494" r="1.2"/><circle cx="752" cy="520" r="1.2"/><circle cx="752" cy="546" r="1.2"/><circle cx="752" cy="572" r="1.2"/><circle cx="752" cy="598" r="1.2"/><circle cx="752" cy="624" r="1.2"/><circle cx="778" cy="0" r="1.2"/><circle cx="778" cy="26" r="1.2"/><circle cx="778" cy="52" r="1.2"/><circle cx="778" cy="78" r="1.2"/><circle cx="778" cy="104" r="1.2"/><circle cx="778" cy="130" r="1.2"/><circle cx="778" cy="156" r="1.2"/><circle cx="778" cy="182" r="1.2"/><circle cx="778" cy="208" r="1.2"/><circle cx="778" cy="234" r="1.2"/><circle cx="778" cy="260" r="1.2"/><circle cx="778" cy="286" r="1.2"/><circle cx="778" cy="312" r="1.2"/><circle cx="778" cy="338" r="1.2"/><circle cx="778" cy="364" r="1.2"/><circle cx="778" cy="390" r="1.2"/><circle cx="778" cy="416" r="1.2"/><circle cx="778" cy="442" r="1.2"/><circle cx="778" cy="468" r="1.2"/><circle cx="778" cy="494" r="1.2"/><circle cx="778" cy="520" r="1.2"/><circle cx="778" cy="546" r="1.2"/><circle cx="778" cy="572" r="1.2"/><circle cx="778" cy="598" r="1.2"/><circle cx="778" cy="624" r="1.2"/><circle cx="804" cy="0" r="1.2"/><circle cx="804" cy="26" r="1.2"/><circle cx="804" cy="52" r="1.2"/><circle cx="804" cy="78" r="1.2"/><circle cx="804" cy="104" r="1.2"/><circle cx="804" cy="130" r="1.2"/><circle cx="804" cy="156" r="1.2"/><circle cx="804" cy="182" r="1.2"/><circle cx="804" cy="208" r="1.2"/><circle cx="804" cy="234" r="1.2"/><circle cx="804" cy="260" r="1.2"/><circle cx="804" cy="286" r="1.2"/><circle cx="804" cy="312" r="1.2"/><circle cx="804" cy="338" r="1.2"/><circle cx="804" cy="364" r="1.2"/><circle cx="804" cy="390" r="1.2"/><circle cx="804" cy="416" r="1.2"/><circle cx="804" cy="442" r="1.2"/><circle cx="804" cy="468" r="1.2"/><circle cx="804" cy="494" r="1.2"/><circle cx="804" cy="520" r="1.2"/><circle cx="804" cy="546" r="1.2"/><circle cx="804" cy="572" r="1.2"/><circle cx="804" cy="598" r="1.2"/><circle cx="804" cy="624" r="1.2"/><circle cx="830" cy="0" r="1.2"/><circle cx="830" cy="26" r="1.2"/><circle cx="830" cy="52" r="1.2"/><circle cx="830" cy="78" r="1.2"/><circle cx="830" cy="104" r="1.2"/><circle cx="830" cy="130" r="1.2"/><circle cx="830" cy="156" r="1.2"/><circle cx="830" cy="182" r="1.2"/><circle cx="830" cy="208" r="1.2"/><circle cx="830" cy="234" r="1.2"/><circle cx="830" cy="260" r="1.2"/><circle cx="830" cy="286" r="1.2"/><circle cx="830" cy="312" r="1.2"/><circle cx="830" cy="338" r="1.2"/><circle cx="830" cy="364" r="1.2"/><circle cx="830" cy="390" r="1.2"/><circle cx="830" cy="416" r="1.2"/><circle cx="830" cy="442" r="1.2"/><circle cx="830" cy="468" r="1.2"/><circle cx="830" cy="494" r="1.2"/><circle cx="830" cy="520" r="1.2"/><circle cx="830" cy="546" r="1.2"/><circle cx="830" cy="572" r="1.2"/><circle cx="830" cy="598" r="1.2"/><circle cx="830" cy="624" r="1.2"/><circle cx="856" cy="0" r="1.2"/><circle cx="856" cy="26" r="1.2"/><circle cx="856" cy="52" r="1.2"/><circle cx="856" cy="78" r="1.2"/><circle cx="856" cy="104" r="1.2"/><circle cx="856" cy="130" r="1.2"/><circle cx="856" cy="156" r="1.2"/><circle cx="856" cy="182" r="1.2"/><circle cx="856" cy="208" r="1.2"/><circle cx="856" cy="234" r="1.2"/><circle cx="856" cy="260" r="1.2"/><circle cx="856" cy="286" r="1.2"/><circle cx="856" cy="312" r="1.2"/><circle cx="856" cy="338" r="1.2"/><circle cx="856" cy="364" r="1.2"/><circle cx="856" cy="390" r="1.2"/><circle cx="856" cy="416" r="1.2"/><circle cx="856" cy="442" r="1.2"/><circle cx="856" cy="468" r="1.2"/><circle cx="856" cy="494" r="1.2"/><circle cx="856" cy="520" r="1.2"/><circle cx="856" cy="546" r="1.2"/><circle cx="856" cy="572" r="1.2"/><circle cx="856" cy="598" r="1.2"/><circle cx="856" cy="624" r="1.2"/><circle cx="882" cy="0" r="1.2"/><circle cx="882" cy="26" r="1.2"/><circle cx="882" cy="52" r="1.2"/><circle cx="882" cy="78" r="1.2"/><circle cx="882" cy="104" r="1.2"/><circle cx="882" cy="130" r="1.2"/><circle cx="882" cy="156" r="1.2"/><circle cx="882" cy="182" r="1.2"/><circle cx="882" cy="208" r="1.2"/><circle cx="882" cy="234" r="1.2"/><circle cx="882" cy="260" r="1.2"/><circle cx="882" cy="286" r="1.2"/><circle cx="882" cy="312" r="1.2"/><circle cx="882" cy="338" r="1.2"/><circle cx="882" cy="364" r="1.2"/><circle cx="882" cy="390" r="1.2"/><circle cx="882" cy="416" r="1.2"/><circle cx="882" cy="442" r="1.2"/><circle cx="882" cy="468" r="1.2"/><circle cx="882" cy="494" r="1.2"/><circle cx="882" cy="520" r="1.2"/><circle cx="882" cy="546" r="1.2"/><circle cx="882" cy="572" r="1.2"/><circle cx="882" cy="598" r="1.2"/><circle cx="882" cy="624" r="1.2"/><circle cx="908" cy="0" r="1.2"/><circle cx="908" cy="26" r="1.2"/><circle cx="908" cy="52" r="1.2"/><circle cx="908" cy="78" r="1.2"/><circle cx="908" cy="104" r="1.2"/><circle cx="908" cy="130" r="1.2"/><circle cx="908" cy="156" r="1.2"/><circle cx="908" cy="182" r="1.2"/><circle cx="908" cy="208" r="1.2"/><circle cx="908" cy="234" r="1.2"/><circle cx="908" cy="260" r="1.2"/><circle cx="908" cy="286" r="1.2"/><circle cx="908" cy="312" r="1.2"/><circle cx="908" cy="338" r="1.2"/><circle cx="908" cy="364" r="1.2"/><circle cx="908" cy="390" r="1.2"/><circle cx="908" cy="416" r="1.2"/><circle cx="908" cy="442" r="1.2"/><circle cx="908" cy="468" r="1.2"/><circle cx="908" cy="494" r="1.2"/><circle cx="908" cy="520" r="1.2"/><circle cx="908" cy="546" r="1.2"/><circle cx="908" cy="572" r="1.2"/><circle cx="908" cy="598" r="1.2"/><circle cx="908" cy="624" r="1.2"/><circle cx="934" cy="0" r="1.2"/><circle cx="934" cy="26" r="1.2"/><circle cx="934" cy="52" r="1.2"/><circle cx="934" cy="78" r="1.2"/><circle cx="934" cy="104" r="1.2"/><circle cx="934" cy="130" r="1.2"/><circle cx="934" cy="156" r="1.2"/><circle cx="934" cy="182" r="1.2"/><circle cx="934" cy="208" r="1.2"/><circle cx="934" cy="234" r="1.2"/><circle cx="934" cy="260" r="1.2"/><circle cx="934" cy="286" r="1.2"/><circle cx="934" cy="312" r="1.2"/><circle cx="934" cy="338" r="1.2"/><circle cx="934" cy="364" r="1.2"/><circle cx="934" cy="390" r="1.2"/><circle cx="934" cy="416" r="1.2"/><circle cx="934" cy="442" r="1.2"/><circle cx="934" cy="468" r="1.2"/><circle cx="934" cy="494" r="1.2"/><circle cx="934" cy="520" r="1.2"/><circle cx="934" cy="546" r="1.2"/><circle cx="934" cy="572" r="1.2"/><circle cx="934" cy="598" r="1.2"/><circle cx="934" cy="624" r="1.2"/><circle cx="960" cy="0" r="1.2"/><circle cx="960" cy="26" r="1.2"/><circle cx="960" cy="52" r="1.2"/><circle cx="960" cy="78" r="1.2"/><circle cx="960" cy="104" r="1.2"/><circle cx="960" cy="130" r="1.2"/><circle cx="960" cy="156" r="1.2"/><circle cx="960" cy="182" r="1.2"/><circle cx="960" cy="208" r="1.2"/><circle cx="960" cy="234" r="1.2"/><circle cx="960" cy="260" r="1.2"/><circle cx="960" cy="286" r="1.2"/><circle cx="960" cy="312" r="1.2"/><circle cx="960" cy="338" r="1.2"/><circle cx="960" cy="364" r="1.2"/><circle cx="960" cy="390" r="1.2"/><circle cx="960" cy="416" r="1.2"/><circle cx="960" cy="442" r="1.2"/><circle cx="960" cy="468" r="1.2"/><circle cx="960" cy="494" r="1.2"/><circle cx="960" cy="520" r="1.2"/><circle cx="960" cy="546" r="1.2"/><circle cx="960" cy="572" r="1.2"/><circle cx="960" cy="598" r="1.2"/><circle cx="960" cy="624" r="1.2"/><circle cx="986" cy="0" r="1.2"/><circle cx="986" cy="26" r="1.2"/><circle cx="986" cy="52" r="1.2"/><circle cx="986" cy="78" r="1.2"/><circle cx="986" cy="104" r="1.2"/><circle cx="986" cy="130" r="1.2"/><circle cx="986" cy="156" r="1.2"/><circle cx="986" cy="182" r="1.2"/><circle cx="986" cy="208" r="1.2"/><circle cx="986" cy="234" r="1.2"/><circle cx="986" cy="260" r="1.2"/><circle cx="986" cy="286" r="1.2"/><circle cx="986" cy="312" r="1.2"/><circle cx="986" cy="338" r="1.2"/><circle cx="986" cy="364" r="1.2"/><circle cx="986" cy="390" r="1.2"/><circle cx="986" cy="416" r="1.2"/><circle cx="986" cy="442" r="1.2"/><circle cx="986" cy="468" r="1.2"/><circle cx="986" cy="494" r="1.2"/><circle cx="986" cy="520" r="1.2"/><circle cx="986" cy="546" r="1.2"/><circle cx="986" cy="572" r="1.2"/><circle cx="986" cy="598" r="1.2"/><circle cx="986" cy="624" r="1.2"/><circle cx="1012" cy="0" r="1.2"/><circle cx="1012" cy="26" r="1.2"/><circle cx="1012" cy="52" r="1.2"/><circle cx="1012" cy="78" r="1.2"/><circle cx="1012" cy="104" r="1.2"/><circle cx="1012" cy="130" r="1.2"/><circle cx="1012" cy="156" r="1.2"/><circle cx="1012" cy="182" r="1.2"/><circle cx="1012" cy="208" r="1.2"/><circle cx="1012" cy="234" r="1.2"/><circle cx="1012" cy="260" r="1.2"/><circle cx="1012" cy="286" r="1.2"/><circle cx="1012" cy="312" r="1.2"/><circle cx="1012" cy="338" r="1.2"/><circle cx="1012" cy="364" r="1.2"/><circle cx="1012" cy="390" r="1.2"/><circle cx="1012" cy="416" r="1.2"/><circle cx="1012" cy="442" r="1.2"/><circle cx="1012" cy="468" r="1.2"/><circle cx="1012" cy="494" r="1.2"/><circle cx="1012" cy="520" r="1.2"/><circle cx="1012" cy="546" r="1.2"/><circle cx="1012" cy="572" r="1.2"/><circle cx="1012" cy="598" r="1.2"/><circle cx="1012" cy="624" r="1.2"/><circle cx="1038" cy="0" r="1.2"/><circle cx="1038" cy="26" r="1.2"/><circle cx="1038" cy="52" r="1.2"/><circle cx="1038" cy="78" r="1.2"/><circle cx="1038" cy="104" r="1.2"/><circle cx="1038" cy="130" r="1.2"/><circle cx="1038" cy="156" r="1.2"/><circle cx="1038" cy="182" r="1.2"/><circle cx="1038" cy="208" r="1.2"/><circle cx="1038" cy="234" r="1.2"/><circle cx="1038" cy="260" r="1.2"/><circle cx="1038" cy="286" r="1.2"/><circle cx="1038" cy="312" r="1.2"/><circle cx="1038" cy="338" r="1.2"/><circle cx="1038" cy="364" r="1.2"/><circle cx="1038" cy="390" r="1.2"/><circle cx="1038" cy="416" r="1.2"/><circle cx="1038" cy="442" r="1.2"/><circle cx="1038" cy="468" r="1.2"/><circle cx="1038" cy="494" r="1.2"/><circle cx="1038" cy="520" r="1.2"/><circle cx="1038" cy="546" r="1.2"/><circle cx="1038" cy="572" r="1.2"/><circle cx="1038" cy="598" r="1.2"/><circle cx="1038" cy="624" r="1.2"/><circle cx="1064" cy="0" r="1.2"/><circle cx="1064" cy="26" r="1.2"/><circle cx="1064" cy="52" r="1.2"/><circle cx="1064" cy="78" r="1.2"/><circle cx="1064" cy="104" r="1.2"/><circle cx="1064" cy="130" r="1.2"/><circle cx="1064" cy="156" r="1.2"/><circle cx="1064" cy="182" r="1.2"/><circle cx="1064" cy="208" r="1.2"/><circle cx="1064" cy="234" r="1.2"/><circle cx="1064" cy="260" r="1.2"/><circle cx="1064" cy="286" r="1.2"/><circle cx="1064" cy="312" r="1.2"/><circle cx="1064" cy="338" r="1.2"/><circle cx="1064" cy="364" r="1.2"/><circle cx="1064" cy="390" r="1.2"/><circle cx="1064" cy="416" r="1.2"/><circle cx="1064" cy="442" r="1.2"/><circle cx="1064" cy="468" r="1.2"/><circle cx="1064" cy="494" r="1.2"/><circle cx="1064" cy="520" r="1.2"/><circle cx="1064" cy="546" r="1.2"/><circle cx="1064" cy="572" r="1.2"/><circle cx="1064" cy="598" r="1.2"/><circle cx="1064" cy="624" r="1.2"/><circle cx="1090" cy="0" r="1.2"/><circle cx="1090" cy="26" r="1.2"/><circle cx="1090" cy="52" r="1.2"/><circle cx="1090" cy="78" r="1.2"/><circle cx="1090" cy="104" r="1.2"/><circle cx="1090" cy="130" r="1.2"/><circle cx="1090" cy="156" r="1.2"/><circle cx="1090" cy="182" r="1.2"/><circle cx="1090" cy="208" r="1.2"/><circle cx="1090" cy="234" r="1.2"/><circle cx="1090" cy="260" r="1.2"/><circle cx="1090" cy="286" r="1.2"/><circle cx="1090" cy="312" r="1.2"/><circle cx="1090" cy="338" r="1.2"/><circle cx="1090" cy="364" r="1.2"/><circle cx="1090" cy="390" r="1.2"/><circle cx="1090" cy="416" r="1.2"/><circle cx="1090" cy="442" r="1.2"/><circle cx="1090" cy="468" r="1.2"/><circle cx="1090" cy="494" r="1.2"/><circle cx="1090" cy="520" r="1.2"/><circle cx="1090" cy="546" r="1.2"/><circle cx="1090" cy="572" r="1.2"/><circle cx="1090" cy="598" r="1.2"/><circle cx="1090" cy="624" r="1.2"/><circle cx="1116" cy="0" r="1.2"/><circle cx="1116" cy="26" r="1.2"/><circle cx="1116" cy="52" r="1.2"/><circle cx="1116" cy="78" r="1.2"/><circle cx="1116" cy="104" r="1.2"/><circle cx="1116" cy="130" r="1.2"/><circle cx="1116" cy="156" r="1.2"/><circle cx="1116" cy="182" r="1.2"/><circle cx="1116" cy="208" r="1.2"/><circle cx="1116" cy="234" r="1.2"/><circle cx="1116" cy="260" r="1.2"/><circle cx="1116" cy="286" r="1.2"/><circle cx="1116" cy="312" r="1.2"/><circle cx="1116" cy="338" r="1.2"/><circle cx="1116" cy="364" r="1.2"/><circle cx="1116" cy="390" r="1.2"/><circle cx="1116" cy="416" r="1.2"/><circle cx="1116" cy="442" r="1.2"/><circle cx="1116" cy="468" r="1.2"/><circle cx="1116" cy="494" r="1.2"/><circle cx="1116" cy="520" r="1.2"/><circle cx="1116" cy="546" r="1.2"/><circle cx="1116" cy="572" r="1.2"/><circle cx="1116" cy="598" r="1.2"/><circle cx="1116" cy="624" r="1.2"/><circle cx="1142" cy="0" r="1.2"/><circle cx="1142" cy="26" r="1.2"/><circle cx="1142" cy="52" r="1.2"/><circle cx="1142" cy="78" r="1.2"/><circle cx="1142" cy="104" r="1.2"/><circle cx="1142" cy="130" r="1.2"/><circle cx="1142" cy="156" r="1.2"/><circle cx="1142" cy="182" r="1.2"/><circle cx="1142" cy="208" r="1.2"/><circle cx="1142" cy="234" r="1.2"/><circle cx="1142" cy="260" r="1.2"/><circle cx="1142" cy="286" r="1.2"/><circle cx="1142" cy="312" r="1.2"/><circle cx="1142" cy="338" r="1.2"/><circle cx="1142" cy="364" r="1.2"/><circle cx="1142" cy="390" r="1.2"/><circle cx="1142" cy="416" r="1.2"/><circle cx="1142" cy="442" r="1.2"/><circle cx="1142" cy="468" r="1.2"/><circle cx="1142" cy="494" r="1.2"/><circle cx="1142" cy="520" r="1.2"/><circle cx="1142" cy="546" r="1.2"/><circle cx="1142" cy="572" r="1.2"/><circle cx="1142" cy="598" r="1.2"/><circle cx="1142" cy="624" r="1.2"/><circle cx="1168" cy="0" r="1.2"/><circle cx="1168" cy="26" r="1.2"/><circle cx="1168" cy="52" r="1.2"/><circle cx="1168" cy="78" r="1.2"/><circle cx="1168" cy="104" r="1.2"/><circle cx="1168" cy="130" r="1.2"/><circle cx="1168" cy="156" r="1.2"/><circle cx="1168" cy="182" r="1.2"/><circle cx="1168" cy="208" r="1.2"/><circle cx="1168" cy="234" r="1.2"/><circle cx="1168" cy="260" r="1.2"/><circle cx="1168" cy="286" r="1.2"/><circle cx="1168" cy="312" r="1.2"/><circle cx="1168" cy="338" r="1.2"/><circle cx="1168" cy="364" r="1.2"/><circle cx="1168" cy="390" r="1.2"/><circle cx="1168" cy="416" r="1.2"/><circle cx="1168" cy="442" r="1.2"/><circle cx="1168" cy="468" r="1.2"/><circle cx="1168" cy="494" r="1.2"/><circle cx="1168" cy="520" r="1.2"/><circle cx="1168" cy="546" r="1.2"/><circle cx="1168" cy="572" r="1.2"/><circle cx="1168" cy="598" r="1.2"/><circle cx="1168" cy="624" r="1.2"/><circle cx="1194" cy="0" r="1.2"/><circle cx="1194" cy="26" r="1.2"/><circle cx="1194" cy="52" r="1.2"/><circle cx="1194" cy="78" r="1.2"/><circle cx="1194" cy="104" r="1.2"/><circle cx="1194" cy="130" r="1.2"/><circle cx="1194" cy="156" r="1.2"/><circle cx="1194" cy="182" r="1.2"/><circle cx="1194" cy="208" r="1.2"/><circle cx="1194" cy="234" r="1.2"/><circle cx="1194" cy="260" r="1.2"/><circle cx="1194" cy="286" r="1.2"/><circle cx="1194" cy="312" r="1.2"/><circle cx="1194" cy="338" r="1.2"/><circle cx="1194" cy="364" r="1.2"/><circle cx="1194" cy="390" r="1.2"/><circle cx="1194" cy="416" r="1.2"/><circle cx="1194" cy="442" r="1.2"/><circle cx="1194" cy="468" r="1.2"/><circle cx="1194" cy="494" r="1.2"/><circle cx="1194" cy="520" r="1.2"/><circle cx="1194" cy="546" r="1.2"/><circle cx="1194" cy="572" r="1.2"/><circle cx="1194" cy="598" r="1.2"/><circle cx="1194" cy="624" r="1.2"/><circle cx="1220" cy="0" r="1.2"/><circle cx="1220" cy="26" r="1.2"/><circle cx="1220" cy="52" r="1.2"/><circle cx="1220" cy="78" r="1.2"/><circle cx="1220" cy="104" r="1.2"/><circle cx="1220" cy="130" r="1.2"/><circle cx="1220" cy="156" r="1.2"/><circle cx="1220" cy="182" r="1.2"/><circle cx="1220" cy="208" r="1.2"/><circle cx="1220" cy="234" r="1.2"/><circle cx="1220" cy="260" r="1.2"/><circle cx="1220" cy="286" r="1.2"/><circle cx="1220" cy="312" r="1.2"/><circle cx="1220" cy="338" r="1.2"/><circle cx="1220" cy="364" r="1.2"/><circle cx="1220" cy="390" r="1.2"/><circle cx="1220" cy="416" r="1.2"/><circle cx="1220" cy="442" r="1.2"/><circle cx="1220" cy="468" r="1.2"/><circle cx="1220" cy="494" r="1.2"/><circle cx="1220" cy="520" r="1.2"/><circle cx="1220" cy="546" r="1.2"/><circle cx="1220" cy="572" r="1.2"/><circle cx="1220" cy="598" r="1.2"/><circle cx="1220" cy="624" r="1.2"/><circle cx="1246" cy="0" r="1.2"/><circle cx="1246" cy="26" r="1.2"/><circle cx="1246" cy="52" r="1.2"/><circle cx="1246" cy="78" r="1.2"/><circle cx="1246" cy="104" r="1.2"/><circle cx="1246" cy="130" r="1.2"/><circle cx="1246" cy="156" r="1.2"/><circle cx="1246" cy="182" r="1.2"/><circle cx="1246" cy="208" r="1.2"/><circle cx="1246" cy="234" r="1.2"/><circle cx="1246" cy="260" r="1.2"/><circle cx="1246" cy="286" r="1.2"/><circle cx="1246" cy="312" r="1.2"/><circle cx="1246" cy="338" r="1.2"/><circle cx="1246" cy="364" r="1.2"/><circle cx="1246" cy="390" r="1.2"/><circle cx="1246" cy="416" r="1.2"/><circle cx="1246" cy="442" r="1.2"/><circle cx="1246" cy="468" r="1.2"/><circle cx="1246" cy="494" r="1.2"/><circle cx="1246" cy="520" r="1.2"/><circle cx="1246" cy="546" r="1.2"/><circle cx="1246" cy="572" r="1.2"/><circle cx="1246" cy="598" r="1.2"/><circle cx="1246" cy="624" r="1.2"/><circle cx="1272" cy="0" r="1.2"/><circle cx="1272" cy="26" r="1.2"/><circle cx="1272" cy="52" r="1.2"/><circle cx="1272" cy="78" r="1.2"/><circle cx="1272" cy="104" r="1.2"/><circle cx="1272" cy="130" r="1.2"/><circle cx="1272" cy="156" r="1.2"/><circle cx="1272" cy="182" r="1.2"/><circle cx="1272" cy="208" r="1.2"/><circle cx="1272" cy="234" r="1.2"/><circle cx="1272" cy="260" r="1.2"/><circle cx="1272" cy="286" r="1.2"/><circle cx="1272" cy="312" r="1.2"/><circle cx="1272" cy="338" r="1.2"/><circle cx="1272" cy="364" r="1.2"/><circle cx="1272" cy="390" r="1.2"/><circle cx="1272" cy="416" r="1.2"/><circle cx="1272" cy="442" r="1.2"/><circle cx="1272" cy="468" r="1.2"/><circle cx="1272" cy="494" r="1.2"/><circle cx="1272" cy="520" r="1.2"/><circle cx="1272" cy="546" r="1.2"/><circle cx="1272" cy="572" r="1.2"/><circle cx="1272" cy="598" r="1.2"/><circle cx="1272" cy="624" r="1.2"/></g>

	<!-- 顶部 275px 是卡片的可见区,品牌与主张全在这里 -->
	<svg x="84" y="52" width="288" height="63.5" viewBox="0 0 1088 240" fill="none" style="color:#1C1A18"><g transform="translate(0,20) scale(0.1953)">
  <circle cx="512" cy="512" r="326" stroke="currentColor" stroke-width="118" pathLength="360"
          stroke-dasharray="270 90" stroke-linecap="round" transform="rotate(10 512 512)"/>
  <circle cx="792" cy="308" r="104" fill="#10B981"/>
</g>
  <g transform="translate(268,0)">
  <text x="0" y="178" font-family="Helvetica Neue, Helvetica, Arial, 'Liberation Sans', 'DejaVu Sans', sans-serif"
        font-size="196" font-weight="560" letter-spacing="-7" fill="currentColor">clear<tspan fill="#3E8E7A">ai</tspan></text>
</g></svg>
	<text x="84" y="205" font-family='Inter,"Noto Sans SC","Source Han Sans SC","PingFang SC",Helvetica,Arial,sans-serif' font-size="54" font-weight="700" fill="#1C1A18" letter-spacing="0.5">你的研究，长成一个本体</text>
	<text x="84" y="254" font-family='Inter,"Noto Sans SC","Source Han Sans SC","PingFang SC",Helvetica,Arial,sans-serif' font-size="27" fill="#1C1A18" fill-opacity="0.55">Your research, grown into an ontology.</text>

	<!-- 右:本体图 -->
	<g>
		<line x1="793.6" y1="416.61" x2="867.15" y2="369.33" stroke="#1C1A18" stroke-opacity="0.5" stroke-width="2.6" marker-end="url(#arrow)"/>
		<line x1="940.52" y1="317.37" x2="1054.22" y2="228.94" stroke="#1C1A18" stroke-opacity="0.3" stroke-width="2" stroke-dasharray="7 5"/>
		<line x1="1106.02" y1="237.85" x2="1150.98" y2="308.1" stroke="#1C1A18" stroke-opacity="0.46" stroke-width="2.4" marker-end="url(#arrow)"/>
		<line x1="932" y1="381" x2="1019.6" y2="497.8" stroke="#1C1A18" stroke-opacity="0.26" stroke-width="2" stroke-dasharray="7 5"/>
		<line x1="1068.09" y1="505.85" x2="1129.34" y2="464.08" stroke="#D97706" stroke-opacity="0.55" stroke-width="2.2"/>
		<line x1="1008.75" y1="538.39" x2="957.98" y2="560.15" stroke="#D97706" stroke-opacity="0.55" stroke-width="2.2"/>
		<circle cx="905" cy="345" r="36" fill="#1C1A18" fill-opacity="0.85"/>
		<circle cx="1085" cy="205" r="30" fill="#1C1A18" fill-opacity="0.85"/>
		<circle cx="1165" cy="330" r="17" fill="#1C1A18" fill-opacity="0.27"/>
		<circle cx="1150" cy="450" r="16" fill="#D97706" fill-opacity="0.5"/>
		<circle cx="935" cy="570" r="16" fill="#D97706" fill-opacity="0.5"/>
		<circle cx="1040" cy="525" r="25" fill="#10B981" fill-opacity="0.55"/>
		<circle cx="765" cy="435" r="25" fill="#10B981" fill-opacity="1"/>
	</g>

	<!-- 右上的图说:这张图与左边那句话的关系 -->
	<text x="1196" y="104" font-family='Inter,"Noto Sans SC","Source Han Sans SC","PingFang SC",Helvetica,Arial,sans-serif' font-size="22" font-weight="600" fill="#3E8E7A" text-anchor="end">认识论循环 → 领域本体</text>
	<text x="1196" y="134" font-family='Inter,"Noto Sans SC","Source Han Sans SC","PingFang SC",Helvetica,Arial,sans-serif' font-size="16" fill="#1C1A18" fill-opacity="0.38" text-anchor="end">Epistemic Loop → Domain Ontology</text>

	<!-- 下:循环本身(装饰;卡片裁掉也不丢信息)。文案与 README.zh-CN.md 的六节拍逐字一致 -->
	<text x="84" y="520" font-family='Inter,"Noto Sans SC","Source Han Sans SC","PingFang SC",Helvetica,Arial,sans-serif' font-size="20" font-weight="600" fill="#1C1A18" fill-opacity="0.55">问题 → 判断（写明怎样算错）→ 一次可能失败的检验 → 证据 → 带范围的结论 → 长进本体</text>
	<text x="84" y="560" font-family='Inter,"Noto Sans SC","Source Han Sans SC","PingFang SC",Helvetica,Arial,sans-serif' font-size="19" fill="#1C1A18" fill-opacity="0.38">github.com/Clearailhc/clearai-dsh</text>
</svg>
